# xmcd
#
# Track frame offsets:
#	150
#	16124
#	36006
#	51451
#	68790
#	88612
#	108302
#	127142
#	142804
#	160841
#	174105
#	190947
#	210539
#	227951
#
# Disc length: 3273 seconds
#
# Revision: 0
# Processed by: cddbd v1.5.1PL0 Copyright (c) Steve Scherf et al.
# Submitted via: dBpowerAMP V4.0
#
DISCID=b80cc70e
DTITLE=Emerson Drive - What If
DYEAR=1900
DGENRE=
TTITLE0=Last One Standing
TTITLE1=Lemonade
TTITLE2=If You Were My Girl
TTITLE3=What If
TTITLE4=I'll Die Trying
TTITLE5=November
TTITLE6=Fishin' In The Dark
TTITLE7=You're Like Coming Home
TTITLE8=Take It From Me
TTITLE9=Waitin' On Me
TTITLE10=Running Back To You
TTITLE11=Simple Miracles
TTITLE12=Still Got Yesterday
TTITLE13=Rescued
EXTD=
EXTT0=
EXTT1=
EXTT2=
EXTT3=
EXTT4=
EXTT5=
EXTT6=
EXTT7=
EXTT8=
EXTT9=
EXTT10=
EXTT11=
EXTT12=
EXTT13=
PLAYORDER=
